<svg xmlns:xlink="http://www.w3.org/1999/xlink" xmlns="http://www.w3.org/2000/svg" version="1.1" viewBox="0 0 1025 1025" height="1025px" width="1025px">
    <title>调皮</title>
    <defs>
        <radialGradient id="radialGradient-1" r="72.362566%" fy="27.637437%" fx="50%" cy="27.637437%" cx="50%">
            <stop offset="0%" stop-color="#FFF5AA"></stop>
            <stop offset="27.121985%" stop-color="#FFEB96"></stop>
            <stop offset="100%" stop-color="#FFA60F"></stop>
        </radialGradient>
        <linearGradient id="linearGradient-2" y2="100%" x2="50%" y1="0%" x1="50%">
            <stop offset="0%" stop-color="#FFF9E0"></stop>
            <stop offset="27.121985%" stop-opacity="0" stop-color="#FFEB96"></stop>
            <stop offset="100%" stop-opacity="0" stop-color="#FFA60F"></stop>
        </linearGradient>
        <linearGradient id="linearGradient-3" y2="100%" x2="50%" y1="0%" x1="50%">
            <stop offset="0%" stop-color="#F07E3F"></stop>
            <stop offset="100%" stop-color="#E35400"></stop>
        </linearGradient>
        <linearGradient id="linearGradient-4" y2="100%" x2="50%" y1="0%" x1="50%">
            <stop offset="0%" stop-opacity="0" stop-color="#B84301"></stop>
            <stop offset="100%" stop-color="#BC4701"></stop>
        </linearGradient>
        <filter id="filter-5" filterUnits="objectBoundingBox" height="109.8%" width="110.1%" y="-4.9%" x="-5.1%">
            <feGaussianBlur in="SourceGraphic" stdDeviation="4"></feGaussianBlur>
        </filter>
        <linearGradient id="linearGradient-6" y2="100%" x2="50%" y1="0%" x1="50%">
            <stop offset="0%" stop-color="#FFAA7C"></stop>
            <stop offset="100%" stop-opacity="0" stop-color="#F47E3F"></stop>
        </linearGradient>
        <filter id="filter-7" filterUnits="objectBoundingBox" height="140.5%" width="112.4%" y="-20.3%" x="-6.2%">
            <feGaussianBlur in="SourceGraphic" stdDeviation="4"></feGaussianBlur>
        </filter>
        <linearGradient id="linearGradient-8" y2="100%" x2="50%" y1="0%" x1="50%">
            <stop offset="0%" stop-color="#F07E3F"></stop>
            <stop offset="100%" stop-color="#D15000"></stop>
        </linearGradient>
        <filter id="filter-9" filterUnits="objectBoundingBox" height="107.1%" width="130.4%" y="-3.5%" x="-15.2%">
            <feGaussianBlur in="SourceGraphic" stdDeviation="2"></feGaussianBlur>
        </filter>
    </defs>
    <g fill-rule="evenodd" fill="none" stroke-width="1" stroke="none" id="页面-1">
        <g transform="translate(0.600000, 0.600000)" id="调皮">
            <polygon points="1024 512.065768 1023.60539 532.453693 1022.42158 552.710083 1020.44855 572.703404 1017.68632 592.696724 1014.13487 612.426975 1009.79422 632.02569 1004.66435 651.361336 998.876814 670.433911 992.300064 689.374952 985.065639 707.921387 977.042004 726.336288 968.360694 744.225048 958.890173 761.850739 948.893513 779.081824 937.976108 796.049839 926.532563 812.62325 914.431342 828.67052 901.672447 844.191651 888.255877 859.318176 874.050096 874.050096 859.318176 888.255877 844.191651 901.672447 828.67052 914.431342 812.62325 926.532563 796.049839 937.976108 779.081824 948.893513 761.850739 958.890173 744.225048 968.360694 726.336288 977.042004 707.921387 985.065639 689.374952 992.300064 670.433911 998.876814 651.361336 1004.66435 632.02569 1009.79422 612.426975 1014.13487 592.696724 1017.68632 572.703404 1020.44855 552.710083 1022.42158 532.453693 1023.60539 512.065768 1024 491.677842 1023.60539 471.421452 1022.42158 451.296596 1020.44855 431.434811 1017.68632 411.70456 1014.13487 392.105845 1009.79422 372.638664 1004.66435 353.566089 998.876814 334.756583 992.300064 316.078613 985.065639 297.795247 977.042004 279.774952 968.360694 262.149261 958.890173 244.918176 948.893513 227.950161 937.976108 211.508285 926.532563 195.461015 914.431342 179.939884 901.672447 164.681824 888.255877 149.949904 874.050096 135.875658 859.318176 122.459088 844.191651 109.568658 828.67052 97.4674374 812.62325 86.0238921 796.049839 75.2380218 779.081824 65.1098266 761.850739 55.7708414 744.225048 46.9579961 726.336288 39.065896 707.921387 31.6999358 689.374952 25.1231856 670.433911 19.3356455 651.361336 14.3373154 632.02569 9.99666024 612.426975 6.44521516 592.696724 3.68298009 572.703404 1.70995504 552.710083 0.39460501 532.453693 0 512.065768 0.39460501 491.677842 1.70995504 471.421452 3.68298009 451.296596 6.44521516 431.434811 9.99666024 411.70456 14.3373154 392.105845 19.3356455 372.638664 25.1231856 353.566089 31.6999358 334.756583 39.065896 316.078613 46.9579961 297.795247 55.7708414 279.774952 65.1098266 262.149261 75.2380218 244.918176 86.0238921 227.950161 97.4674374 211.508285 109.568658 195.461015 122.459088 179.939884 135.875658 164.681824 149.949904 149.949904 164.681824 135.875658 179.939884 122.459088 195.461015 109.568658 211.508285 97.4674374 227.950161 86.0238921 244.918176 75.2380218 262.149261 65.1098266 279.774952 55.7708414 297.795247 46.9579961 316.078613 39.065896 334.756583 31.6999358 353.566089 25.1231856 372.638664 19.3356455 392.105845 14.3373154 411.70456 9.99666024 431.434811 6.44521516 451.296596 3.68298009 471.421452 1.70995504 491.677842 0.39460501 512.065768 0 532.453693 0.39460501 552.710083 1.70995504 572.703404 3.68298009 592.696724 6.44521516 612.426975 9.99666024 632.02569 14.3373154 651.361336 19.3356455 670.433911 25.1231856 689.374952 31.6999358 707.921387 39.065896 726.336288 46.9579961 744.225048 55.7708414 761.850739 65.1098266 779.081824 75.2380218 796.049839 86.0238921 812.62325 97.4674374 828.67052 109.568658 844.191651 122.459088 859.318176 135.875658 874.050096 149.949904 888.255877 164.681824 901.672447 179.939884 914.431342 195.461015 926.532563 211.508285 937.976108 227.950161 948.893513 244.918176 958.890173 262.149261 968.360694 279.774952 977.042004 297.795247 985.065639 316.078613 992.300064 334.756583 998.876814 353.566089 1004.66435 372.638664 1009.79422 392.105845 1014.13487 411.70456 1017.68632 431.434811 1020.44855 451.296596 1022.42158 471.421452 1023.60539 491.677842" fill="url(#radialGradient-1)" id="蒙版"></polygon>
            <polygon points="1024 512.065768 1023.60539 532.453693 1022.42158 552.710083 1020.44855 572.703404 1017.68632 592.696724 1014.13487 612.426975 1009.79422 632.02569 1004.66435 651.361336 998.876814 670.433911 992.300064 689.374952 985.065639 707.921387 977.042004 726.336288 968.360694 744.225048 958.890173 761.850739 948.893513 779.081824 937.976108 796.049839 926.532563 812.62325 914.431342 828.67052 901.672447 844.191651 888.255877 859.318176 874.050096 874.050096 859.318176 888.255877 844.191651 901.672447 828.67052 914.431342 812.62325 926.532563 796.049839 937.976108 779.081824 948.893513 761.850739 958.890173 744.225048 968.360694 726.336288 977.042004 707.921387 985.065639 689.374952 992.300064 670.433911 998.876814 651.361336 1004.66435 632.02569 1009.79422 612.426975 1014.13487 592.696724 1017.68632 572.703404 1020.44855 552.710083 1022.42158 532.453693 1023.60539 512.065768 1024 491.677842 1023.60539 471.421452 1022.42158 451.296596 1020.44855 431.434811 1017.68632 411.70456 1014.13487 392.105845 1009.79422 372.638664 1004.66435 353.566089 998.876814 334.756583 992.300064 316.078613 985.065639 297.795247 977.042004 279.774952 968.360694 262.149261 958.890173 244.918176 948.893513 227.950161 937.976108 211.508285 926.532563 195.461015 914.431342 179.939884 901.672447 164.681824 888.255877 149.949904 874.050096 135.875658 859.318176 122.459088 844.191651 109.568658 828.67052 97.4674374 812.62325 86.0238921 796.049839 75.2380218 779.081824 65.1098266 761.850739 55.7708414 744.225048 46.9579961 726.336288 39.065896 707.921387 31.6999358 689.374952 25.1231856 670.433911 19.3356455 651.361336 14.3373154 632.02569 9.99666024 612.426975 6.44521516 592.696724 3.68298009 572.703404 1.70995504 552.710083 0.39460501 532.453693 0 512.065768 0.39460501 491.677842 1.70995504 471.421452 3.68298009 451.296596 6.44521516 431.434811 9.99666024 411.70456 14.3373154 392.105845 19.3356455 372.638664 25.1231856 353.566089 31.6999358 334.756583 39.065896 316.078613 46.9579961 297.795247 55.7708414 279.774952 65.1098266 262.149261 75.2380218 244.918176 86.0238921 227.950161 97.4674374 211.508285 109.568658 195.461015 122.459088 179.939884 135.875658 164.681824 149.949904 149.949904 164.681824 135.875658 179.939884 122.459088 195.461015 109.568658 211.508285 97.4674374 227.950161 86.0238921 244.918176 75.2380218 262.149261 65.1098266 279.774952 55.7708414 297.795247 46.9579961 316.078613 39.065896 334.756583 31.6999358 353.566089 25.1231856 372.638664 19.3356455 392.105845 14.3373154 411.70456 9.99666024 431.434811 6.44521516 451.296596 3.68298009 471.421452 1.70995504 491.677842 0.39460501 512.065768 0 532.453693 0.39460501 552.710083 1.70995504 572.703404 3.68298009 592.696724 6.44521516 612.426975 9.99666024 632.02569 14.3373154 651.361336 19.3356455 670.433911 25.1231856 689.374952 31.6999358 707.921387 39.065896 726.336288 46.9579961 744.225048 55.7708414 761.850739 65.1098266 779.081824 75.2380218 796.049839 86.0238921 812.62325 97.4674374 828.67052 109.568658 844.191651 122.459088 859.318176 135.875658 874.050096 149.949904 888.255877 164.681824 901.672447 179.939884 914.431342 195.461015 926.532563 211.508285 937.976108 227.950161 948.893513 244.918176 958.890173 262.149261 968.360694 279.774952 977.042004 297.795247 985.065639 316.078613 992.300064 334.756583 998.876814 353.566089 1004.66435 372.638664 1009.79422 392.105845 1014.13487 411.70456 1017.68632 431.434811 1020.44855 451.296596 1022.42158 471.421452 1023.60539 491.677842" fill="url(#linearGradient-2)" id="蒙版备份"></polygon>
            <path fill="url(#linearGradient-3)" id="矩形" d="M393.421195,657.806551 L630.1842,657.806551 L630.1842,802.461657 C630.1842,857.690132 585.412675,902.461657 530.1842,902.461657 L493.421195,902.461657 C438.19272,902.461657 393.421195,857.690132 393.421195,802.461657 L393.421195,657.806551 L393.421195,657.806551 Z"></path>
            <path filter="url(#filter-5)" stroke-width="7" stroke="url(#linearGradient-4)" id="矩形备份-2" d="M626.6842,661.306551 L626.6842,802.461657 C626.6842,829.109396 615.88307,853.234396 598.420005,870.697461 C580.95694,888.160527 556.83194,898.961657 530.1842,898.961657 L530.1842,898.961657 L493.421195,898.961657 C466.773455,898.961657 442.648455,888.160527 425.18539,870.697461 C407.722325,853.234396 396.921195,829.109396 396.921195,802.461657 L396.921195,802.461657 L396.921195,661.306551 L626.6842,661.306551 Z"></path>
            <rect height="59.1907514" width="193.356455" y="657.806551" x="415.12447" filter="url(#filter-7)" style="mix-blend-mode: lighten;" fill="url(#linearGradient-6)" id="矩形备份-3"></rect>
            <rect height="169.680154" width="39.460501" y="657.806551" x="492.072447" filter="url(#filter-9)" opacity="0.716602144" fill="url(#linearGradient-8)" id="矩形备份"></rect>
            <polygon points="781.120617 629.197688 781.120617 664.712139 248.403854 664.712139 248.403854 629.197688" fill-rule="nonzero" fill="#672900" id="直线-2"></polygon>
            <polygon points="464.450096 427.949133 463.996578 440.456046 462.636025 452.563802 460.519608 464.139349 457.647328 475.31574 453.868013 486.49213 449.484007 497.003259 444.344137 507.115231 438.599578 516.561942 432.099155 525.742548 424.994042 534.124841 417.586583 541.841873 409.574434 549.026695 400.806422 555.546256 391.887237 561.267503 382.514534 566.190437 372.688314 570.315057 364.524992 572.976103 356.361671 575.104939 347.896004 576.568514 339.127992 577.49988 330.208807 577.899037 321.289622 577.49988 312.672782 576.568514 304.207116 575.104939 295.892621 572.976103 287.880472 570.315057 278.054252 566.190437 268.681549 561.267503 259.611192 555.546256 250.994352 549.026695 242.982203 541.841873 235.423572 534.124841 228.469631 525.742548 221.969208 516.561942 216.224649 507.115231 211.08478 497.003259 206.700773 486.49213 202.921458 475.31574 199.898005 464.139349 197.781589 452.563802 196.572208 440.456046 196.11869 427.949133 196.572208 415.44222 197.781589 403.467516 199.898005 391.891969 202.921458 380.582526 206.700773 369.406136 211.08478 358.895007 216.224649 348.916087 221.969208 339.469376 228.469631 330.28877 235.423572 321.773425 242.982203 314.056393 250.994352 307.004623 259.611192 300.485062 268.681549 294.763815 278.054252 289.840881 287.880472 285.716261 295.892621 282.922163 304.207116 280.926379 312.672782 279.329752 321.289622 278.398386 330.208807 277.999229 339.127992 278.398386 347.896004 279.329752 356.361671 280.926379 364.524992 282.922163 372.688314 285.716261 382.514534 289.840881 391.887237 294.763815 400.806422 300.485062 409.574434 307.004623 417.586583 314.056393 424.994042 321.773425 432.099155 330.28877 438.599578 339.469376 444.344137 348.916087 449.484007 358.895007 453.868013 369.406136 457.647328 380.582526 460.519608 391.891969 462.636025 403.467516 463.996578 415.44222" fill="#FFFFFF" id="椭圆形备份-2"></polygon>
            <path fill-rule="nonzero" fill="#9A9997" id="椭圆形备份-3" d="M330.208807,277.999229 L339.127992,278.398386 L347.896004,279.329752 L356.361671,280.926379 L364.524992,282.922163 L372.688314,285.716261 L382.514534,289.840881 L391.887237,294.763815 L400.806422,300.485062 L409.574434,307.004623 L417.586583,314.056393 L424.994042,321.773425 L432.099155,330.28877 L438.599578,339.469376 L444.344137,348.916087 L449.484007,358.895007 L453.868013,369.406136 L457.647328,380.582526 L460.519608,391.891969 L462.636025,403.467516 L463.996578,415.44222 L464.450096,427.949133 L463.996578,440.456046 L462.636025,452.563802 L460.519608,464.139349 L457.647328,475.31574 L453.868013,486.49213 L449.484007,497.003259 L444.344137,507.115231 L438.599578,516.561942 L432.099155,525.742548 L424.994042,534.124841 L417.586583,541.841873 L409.574434,549.026695 L400.806422,555.546256 L391.887237,561.267503 L382.514534,566.190437 L372.688314,570.315057 L364.524992,572.976103 L356.361671,575.104939 L347.896004,576.568514 L339.127992,577.49988 L330.208807,577.899037 L321.289622,577.49988 L312.672782,576.568514 L304.207116,575.104939 L295.892621,572.976103 L287.880472,570.315057 L278.054252,566.190437 L268.681549,561.267503 L259.611192,555.546256 L250.994352,549.026695 L242.982203,541.841873 L235.423572,534.124841 L228.469631,525.742548 L221.969208,516.561942 L216.224649,507.115231 L211.08478,497.003259 L206.700773,486.49213 L202.921458,475.31574 L199.898005,464.139349 L197.781589,452.563802 L196.572208,440.456046 L196.11869,427.949133 L196.572208,415.44222 L197.781589,403.467516 L199.898005,391.891969 L202.921458,380.582526 L206.700773,369.406136 L211.08478,358.895007 L216.224649,348.916087 L221.969208,339.469376 L228.469631,330.28877 L235.423572,321.773425 L242.982203,314.056393 L250.994352,307.004623 L259.611192,300.485062 L268.681549,294.763815 L278.054252,289.840881 L287.880472,285.716261 L295.892621,282.922163 L304.207116,280.926379 L312.672782,279.329752 L321.289622,278.398386 L330.208807,277.999229 Z M330.207445,293.799214 L322.471214,294.144493 L314.969773,294.95738 L307.531468,296.3602 L300.3319,298.08857 L293.521017,300.464092 L284.784462,304.133919 L276.574705,308.444979 L268.593819,313.480139 L260.993726,319.229534 L253.843484,325.521511 L247.194389,332.312663 L241.042497,339.843699 L235.158936,348.156054 L230.007368,356.62625 L225.400355,365.569973 L221.477981,374.975383 L218.037025,385.152247 L215.310304,395.356732 L213.422119,405.681572 L212.327091,416.527291 L211.912755,427.949133 L212.327091,439.370975 L213.424092,450.356778 L215.310304,460.671753 L218.029133,470.718397 L221.477981,480.920909 L225.424031,490.383538 L230.029071,499.43775 L235.166829,507.886243 L241.001064,516.127568 L247.156902,523.546143 L253.884917,530.416216 L261.037133,536.832493 L268.595792,542.55032 L276.574705,547.58548 L284.784462,551.896539 L293.424339,555.52296 L300.335846,557.819561 L307.517657,559.65842 L314.855337,560.927075 L322.471214,561.7518 L330.207445,562.097079 L337.949595,561.7518 L345.709503,560.927075 L353.019561,559.662366 L360.079044,557.821534 L367.16615,555.513094 L375.782351,551.896539 L383.930944,547.617048 L391.82699,542.552293 L399.580979,536.785141 L406.624678,530.467514 L413.267854,523.54417 L419.619021,516.052593 L425.399985,507.886243 L430.537742,499.43775 L435.142782,490.383538 L439.088832,480.920909 L442.502166,470.82494 L445.094721,460.742782 L447.008555,450.271938 L448.243669,439.290081 L448.654058,427.94716 L448.243669,416.61805 L447.010528,405.760493 L445.088802,395.252162 L442.500193,385.065434 L439.088832,374.975383 L435.166459,365.569973 L430.559445,356.62625 L425.407877,348.156054 L419.579561,339.92262 L413.230366,332.312663 L406.664139,325.470212 L399.626358,319.276886 L391.82699,313.478166 L383.946728,308.423276 L375.782351,304.133919 L367.083283,300.479877 L360.079044,298.084624 L353.013642,296.356254 L345.599013,294.95738 L337.949595,294.144493 L330.207445,293.799214 Z"></path>
            <polygon points="361.852794 469.382659 361.53931 475.572335 360.807847 481.562345 359.658405 487.452521 357.98649 493.043196 355.896596 498.633872 353.388723 503.825213 350.567366 508.916721 347.32803 513.608896 343.77521 518.201236 339.804411 522.394243 335.624623 526.287749 331.13135 529.881755 326.324594 533.17626 321.308848 535.971598 316.084112 538.467435 310.545893 540.563938 304.903179 542.161274 299.051475 543.359276 293.095277 544.05811 286.930089 544.357611 280.660407 544.05811 274.704209 543.359276 268.852505 542.161274 263.209791 540.563938 257.671572 538.467435 252.446836 535.971598 247.43109 533.17626 242.624334 529.881755 238.131061 526.287749 233.951273 522.394243 229.980474 518.201236 226.427654 513.608896 223.188318 508.916721 220.366961 503.825213 217.859088 498.633872 215.769194 493.043196 214.097279 487.452521 212.947837 481.562345 212.216374 475.572335 211.90289 469.382659 212.216374 463.093149 212.947837 457.10314 214.097279 451.312797 215.769194 445.622288 217.859088 440.131446 220.366961 434.840271 223.188318 429.848596 226.427654 425.056589 229.980474 420.564082 233.951273 416.371075 238.131061 412.477569 242.624334 408.883563 247.43109 405.589058 252.446836 402.79372 257.671572 400.297883 263.209791 398.20138 268.852505 396.50421 274.704209 395.406042 280.660407 394.607374 286.930089 394.407707 293.095277 394.607374 299.051475 395.406042 304.903179 396.50421 310.545893 398.20138 316.084112 400.297883 321.308848 402.79372 326.324594 405.589058 331.13135 408.883563 335.624623 412.477569 339.804411 416.371075 343.77521 420.564082 347.32803 425.056589 350.567366 429.848596 353.388723 434.840271 355.896596 440.131446 357.98649 445.622288 359.658405 451.312797 360.807847 457.10314 361.53931 463.093149" fill="#302838" id="椭圆形"></polygon>
            <path transform="translate(719.615387, 455.307552) scale(-1, 1) translate(-719.615387, -455.307552)" fill-rule="nonzero" fill="#672900" id="直线" d="M643.975551,363.737916 C648.835916,355.429739 659.403446,352.532638 667.796486,357.110206 L668.269188,357.37731 L833.528357,454.055538 C848.060387,462.556917 843.707083,484.621822 827.035118,486.966798 C818.77535,488.128566 810.746695,489.337673 802.949688,490.593226 L797.145376,491.543586 L791.427982,492.51128 C709.156183,506.668112 654.312331,526.26532 627.588135,550.156449 L626.677757,550.981981 C619.460205,557.621639 608.226716,557.153163 601.587058,549.93561 C594.9474,542.718057 595.415876,531.484568 602.633429,524.84491 C627.957496,501.548491 670.378718,483.021806 730.240373,468.6959 L734.651625,467.655152 C736.872818,467.138518 739.117366,466.627488 741.385286,466.122035 L745.952293,465.118554 L750.581656,464.129894 C751.358414,463.96635 752.137771,463.803421 752.919729,463.641107 L757.64268,462.674585 C759.2274,462.354863 760.822525,462.037591 762.42806,461.722759 L767.275899,460.785581 C768.089079,460.630603 768.904862,460.476232 769.72325,460.322469 L772.899021,459.73062 L650.336157,388.031553 C642.027979,383.171188 639.130879,372.603658 643.708446,364.210618 L643.975551,363.737916 Z"></path>
        </g>
    </g>
</svg>